<?xml version="1.0" encoding="UTF-8" standalone="no"?>

<svg
   width="210mm"
   height="297mm"
   viewBox="0 0 210 297"
   version="1.1"
   id="svg5"
   inkscape:export-filename="svg.svg"
   inkscape:export-xdpi="102.62627"
   inkscape:export-ydpi="102.62627"
   xmlns:inkscape="http://www.inkscape.org/namespaces/inkscape"
   xmlns:sodipodi="http://sodipodi.sourceforge.net/DTD/sodipodi-0.dtd"
   xmlns="http://www.w3.org/2000/svg"
   xmlns:svg="http://www.w3.org/2000/svg">
  <sodipodi:namedview
     id="namedview7"
     pagecolor="#ffffff"
     bordercolor="#000000"
     borderopacity="0.25"
     inkscape:showpageshadow="2"
     inkscape:pageopacity="0.0"
     inkscape:pagecheckerboard="0"
     inkscape:deskcolor="#d1d1d1"
     inkscape:document-units="mm"
     showgrid="false" />
  <defs
     id="defs2">
    <rect
       x="57.077271"
       y="523.20831"
       width="692.06189"
       height="145.0714"
       id="rect837" />
  </defs>
  <g
     inkscape:label="Layer 1"
     inkscape:groupmode="layer"
     id="layer1">
    <circle
       style="fill:#ffff00;stroke-width:0.264583"
       id="path111"
       cx="80.542366"
       cy="95.644066"
       r="44.046608" />
    <ellipse
       style="fill:#000000;stroke-width:0.264583"
       id="path307"
       cx="122.70127"
       cy="53.485157"
       rx="17.618643"
       ry="15.730931" />
    <ellipse
       style="fill:#000000;stroke-width:0.264583"
       id="path309"
       cx="39.956551"
       cy="52.855927"
       rx="16.674788"
       ry="15.101694" />
    <rect
       style="fill:#000000;stroke-width:0.264583"
       id="rect471"
       width="16.989407"
       height="10.697034"
       x="57.889828"
       y="74.879234" />
    <rect
       style="fill:#000000;stroke-width:0.264583"
       id="rect473"
       width="18.877117"
       height="10.697034"
       x="87.463982"
       y="74.879234" />
    <path
       style="fill:#000000;stroke-width:0.264583"
       id="path587"
       d="m 106.92011,107.6128 c -0.74432,1.47352 -1.49899,2.93655 -2.42148,4.30744 -0.86778,1.32276 -1.91965,2.48014 -3.03195,3.59716 -1.12027,1.33236 -2.655501,1.93171 -4.220699,2.55592 -1.756685,0.59749 -3.568004,0.98291 -5.372706,1.3984 -2.200812,0.61878 -4.468556,0.36849 -6.714487,0.45981 -1.754034,0.12756 -3.508171,0.24618 -5.26578,0.31027 -1.412703,-0.0545 -2.786806,0.27286 -4.180147,0.4484 -1.715603,0.19179 -3.444576,0.20789 -5.168865,0.22726 -1.539685,0.12084 -2.992718,-0.0856 -4.432501,-0.611 -1.537941,-0.42456 -3.035684,-0.95566 -4.470442,-1.65657 1.133932,0.81347 -4.753764,-2.4958 -3.322807,-1.67464 3.05395,1.75251 3.473288,2.06098 2.018316,1.07627 -1.32682,-0.94157 -2.482827,-2.07827 -3.45176,-3.38162 -0.716843,-1.13717 -0.919631,-2.4198 -1.006112,-3.73363 -0.02788,-0.76956 -0.04449,-0.40348 0.03417,-1.09884 0,0 -3.495662,-1.83746 -3.495662,-1.83746 v 0 c -0.106794,0.75812 -0.08385,0.36831 -0.05956,1.16993 0.08194,1.37251 0.243324,2.70989 0.923343,3.93746 0.933656,1.35362 2.086816,2.52003 3.403941,3.50651 2.486951,1.7868 5.247222,3.1747 8.014094,4.47136 1.462842,0.67102 2.980862,1.18321 4.52247,1.6428 1.460183,0.47639 2.957666,0.57278 4.489122,0.48386 1.73827,-0.0254 3.482316,-0.0408 5.210077,-0.25361 1.383475,-0.18401 2.755551,-0.46131 4.158933,-0.42095 1.749287,-0.0782 3.49477,-0.212 5.242062,-0.32418 2.264201,-0.0614 4.541904,0.0882 6.757519,-0.51894 1.826893,-0.40188 3.652589,-0.81637 5.419191,-1.44187 1.60978,-0.64513 3.15983,-1.33107 4.31624,-2.68424 1.1304,-1.13473 2.18027,-2.32383 3.06141,-3.66707 0.92511,-1.37771 1.67348,-2.849 2.46834,-4.30353 0,0 -3.42427,-1.9847 -3.42427,-1.9847 z" />
    <circle
       id="path711"
       style="fill:#000000;stroke:#000000;stroke-width:0.264583"
       cx="162.34322"
       cy="274.34747"
       r="0.083813794" />
    <text
       xml:space="preserve"
       transform="matrix(0.26458333,0,0,0.26458333,-8.1800847,6.2923729)"
       id="text835"
       style="font-style:normal;font-variant:normal;font-weight:bold;font-stretch:semi-expanded;font-size:96px;font-family:Magneto;-inkscape-font-specification:'Magneto, Bold Semi-Expanded';font-variant-ligatures:normal;font-variant-caps:normal;font-variant-numeric:normal;font-variant-east-asian:normal;white-space:pre;shape-inside:url(#rect837);fill:#000000"><tspan
         x="57.078125"
         y="611.75586"
         id="tspan963">WOOOSH</tspan></text>
  </g>
</svg>
